<?xml version="1.0" encoding="UTF-8" standalone="no"?>
<!-- Created with Inkscape (http://www.inkscape.org/) -->

<svg
   xmlns:dc="http://purl.org/dc/elements/1.1/"
   xmlns:cc="http://creativecommons.org/ns#"
   xmlns:rdf="http://www.w3.org/1999/02/22-rdf-syntax-ns#"
   xmlns:svg="http://www.w3.org/2000/svg"
   xmlns="http://www.w3.org/2000/svg"
   xmlns:sodipodi="http://sodipodi.sourceforge.net/DTD/sodipodi-0.dtd"
   xmlns:inkscape="http://www.inkscape.org/namespaces/inkscape"
   width="21.103134mm"
   height="6.0581093mm"
   viewBox="0 0 74.774885 21.465742"
   id="svg2"
   version="1.1"
   inkscape:version="0.91 r13725"
   sodipodi:docname="logo.svg">
  <defs
     id="defs4" />
  <sodipodi:namedview
     id="base"
     pagecolor="#bebebe"
     bordercolor="#666666"
     borderopacity="1.0"
     inkscape:pageopacity="0"
     inkscape:pageshadow="2"
     inkscape:zoom="3.959798"
     inkscape:cx="33.153311"
     inkscape:cy="1.516591"
     inkscape:document-units="px"
     inkscape:current-layer="layer1"
     showgrid="false"
     fit-margin-top="0"
     fit-margin-left="0"
     fit-margin-right="0"
     fit-margin-bottom="0"
     inkscape:window-width="1024"
     inkscape:window-height="704"
     inkscape:window-x="0"
     inkscape:window-y="27"
     inkscape:window-maximized="1" />
  <metadata
     id="metadata7">
    <rdf:RDF>
      <cc:Work
         rdf:about="">
        <dc:format>image/svg+xml</dc:format>
        <dc:type
           rdf:resource="http://purl.org/dc/dcmitype/StillImage" />
        <dc:title></dc:title>
      </cc:Work>
    </rdf:RDF>
  </metadata>
  <g
     inkscape:label="Tavolo 1"
     inkscape:groupmode="layer"
     id="layer1"
     transform="translate(-103.40083,-155.93792)">
    <g
       style="color:#000000;font-style:normal;font-variant:normal;font-weight:normal;font-stretch:normal;font-size:20px;line-height:110.00000238%;font-family:DIN-Black;-inkscape-font-specification:DIN-Black;text-align:start;writing-mode:lr-tb;text-anchor:start;clip-rule:nonzero;display:inline;overflow:visible;visibility:visible;opacity:1;color-interpolation:sRGB;color-interpolation-filters:linearRGB;fill:#ffffff;fill-opacity:1;fill-rule:nonzero;stroke:none;stroke-width:16;stroke-linecap:square;stroke-linejoin:miter;stroke-miterlimit:4;stroke-dasharray:none;stroke-dashoffset:0;stroke-opacity:1;marker:none;color-rendering:auto;image-rendering:auto;shape-rendering:auto;text-rendering:auto;enable-background:accumulate"
       id="text3336">
      <path
         d="m 135.72571,173.79079 0,-14.24 3.5,0 0,11.12 5.98,0 0,3.12 -9.48,0 z"
         id="path3341"
         inkscape:connector-curvature="0" />
      <path
         d="m 154.76914,172.53079 q -0.56,0.6 -1.42,1 -0.84,0.38 -2.04,0.38 -1.22,0 -2.06,-0.38 -0.82,-0.38 -1.44,-1.04 -0.62,-0.68 -0.88,-1.58 -0.26,-0.9 -0.26,-2.5 0,-1.62 0.24,-2.48 0.24,-0.88 0.86,-1.56 0.64,-0.68 1.48,-1.06 0.86,-0.4 2.06,-0.4 1.22,0 2.04,0.38 0.84,0.38 1.46,1.06 0.62,0.66 0.88,1.58 0.26,0.92 0.26,2.48 0,1.62 -0.24,2.5 -0.24,0.86 -0.94,1.62 z m -2.58,-6.36 q -0.3,-0.3 -0.88,-0.3 -0.58,0 -0.88,0.3 -0.3,0.3 -0.4,0.82 -0.08,0.5 -0.08,1.42 0,0.9 0.08,1.42 0.1,0.52 0.4,0.82 0.3,0.3 0.88,0.3 0.58,0 0.88,-0.3 0.3,-0.3 0.38,-0.8 0.1,-0.52 0.1,-1.44 0,-0.9 -0.1,-1.42 -0.08,-0.52 -0.38,-0.82 z"
         id="path3343"
         inkscape:connector-curvature="0" />
      <path
         d="m 161.94477,177.39079 q -1.36,0 -2.3,-0.3 -0.94,-0.3 -1.74,-1.1 l 2.04,-2.04 q 0.36,0.36 0.82,0.52 0.46,0.16 1.02,0.16 0.92,0 1.32,-0.5 0.42,-0.5 0.42,-1.14 l 0,-0.78 q -0.9,0.9 -2.32,0.9 -1.56,0 -2.38,-0.8 -0.8,-0.82 -0.98,-1.7 -0.16,-0.9 -0.16,-2.6 0,-1.8 0.16,-2.62 0.16,-0.84 0.98,-1.66 0.82,-0.82 2.4,-0.82 0.82,0 1.34,0.24 0.52,0.22 1.06,0.76 l 0,-0.88 3.18,0 0,9.98 q 0,1.92 -1.34,3.14 -1.32,1.24 -3.52,1.24 z m 0.3,-11.52 q -0.62,0 -0.96,0.42 -0.32,0.42 -0.32,1.72 0,1.34 0.3,1.74 0.32,0.4 0.98,0.4 0.62,0 0.94,-0.42 0.34,-0.42 0.34,-1.72 0,-1.34 -0.32,-1.74 -0.3,-0.4 -0.96,-0.4 z"
         id="path3345"
         inkscape:connector-curvature="0" />
      <path
         d="m 176.99571,172.53079 q -0.56,0.6 -1.42,1 -0.84,0.38 -2.04,0.38 -1.22,0 -2.06,-0.38 -0.82,-0.38 -1.44,-1.04 -0.62,-0.68 -0.88,-1.58 -0.26,-0.9 -0.26,-2.5 0,-1.62 0.24,-2.48 0.24,-0.88 0.86,-1.56 0.64,-0.68 1.48,-1.06 0.86,-0.4 2.06,-0.4 1.22,0 2.04,0.38 0.84,0.38 1.46,1.06 0.62,0.66 0.88,1.58 0.26,0.92 0.26,2.48 0,1.62 -0.24,2.5 -0.24,0.86 -0.94,1.62 z m -2.58,-6.36 q -0.3,-0.3 -0.88,-0.3 -0.58,0 -0.88,0.3 -0.3,0.3 -0.4,0.82 -0.08,0.5 -0.08,1.42 0,0.9 0.08,1.42 0.1,0.52 0.4,0.82 0.3,0.3 0.88,0.3 0.58,0 0.88,-0.3 0.3,-0.3 0.38,-0.8 0.1,-0.52 0.1,-1.44 0,-0.9 -0.1,-1.42 -0.08,-0.52 -0.38,-0.82 z"
         id="path3347"
         inkscape:connector-curvature="0" />
    </g>
    <circle
       style="color:#000000;clip-rule:nonzero;display:inline;overflow:visible;visibility:visible;opacity:1;color-interpolation:sRGB;color-interpolation-filters:linearRGB;fill:#ffffff;fill-opacity:1;fill-rule:nonzero;stroke:none;stroke-width:16;stroke-linecap:square;stroke-linejoin:miter;stroke-miterlimit:4;stroke-dasharray:none;stroke-dashoffset:0;stroke-opacity:1;marker:none;color-rendering:auto;image-rendering:auto;shape-rendering:auto;text-rendering:auto;enable-background:accumulate"
       id="path3349"
       cx="114.1337"
       cy="166.67079"
       r="10.732871" />
  </g>
</svg>
